<svg xmlns="http://www.w3.org/2000/svg" width="470" height="151" viewBox="0 0 470 151" version="1.1"><path d="M 363.455 5.455 C 362.105 6.805, 360.994 8.717, 360.987 9.705 C 360.968 12.454, 354.395 23.449, 353.570 22.113 C 352.444 20.291, 351 21.863, 351 24.911 C 351 29.014, 346.972 34.500, 343.960 34.500 C 340.353 34.500, 340.347 31.324, 343.938 23.141 C 347.433 15.179, 347.616 13.759, 345.429 11.571 C 343.135 9.278, 341.834 9.595, 337.180 13.578 C 334.881 15.546, 333 16.757, 333 16.269 C 333 15.781, 332.354 14.509, 331.565 13.441 C 330.226 11.631, 329.862 12.072, 326.153 20 C 323.967 24.675, 321.677 30.388, 321.065 32.696 C 319.750 37.654, 315.481 41.644, 313.368 39.891 C 311.716 38.519, 312.328 35.733, 316.163 27.157 C 319.339 20.056, 319.701 16.827, 317.525 15.021 C 316.308 14.011, 315.838 14.261, 314.842 16.447 C 313.845 18.635, 313.483 18.827, 312.767 17.549 C 311.484 15.256, 306.953 15.668, 302.860 18.449 C 298.626 21.326, 293.453 28.757, 291.767 34.384 C 290.298 39.288, 283.871 46.319, 281.322 45.812 C 279.814 45.512, 279.512 44.505, 279.572 39.974 C 279.639 34.866, 279.959 34.166, 284.351 29.500 C 293.245 20.053, 296.993 7.672, 291.800 4.893 C 289.855 3.852, 289.281 4.099, 286.835 7.028 C 282.733 11.942, 277.303 23.552, 275.390 31.500 C 273.040 41.264, 272.120 43.578, 269.438 46.473 C 263.584 52.789, 262.183 46.964, 267 36.340 C 270.141 29.412, 270.814 24.621, 268.819 23.388 C 268.129 22.961, 267.033 23.571, 266.179 24.857 C 264.822 26.901, 264.593 26.941, 262.922 25.430 C 256.432 19.556, 239.408 40.053, 242.978 49.443 C 244.500 53.444, 247.999 54.569, 252.412 52.475 C 254.424 51.520, 256.543 49.854, 257.122 48.772 C 258.161 46.831, 258.195 46.833, 259.644 48.902 C 261.885 52.101, 267.136 51.698, 271.345 48.002 C 274.312 45.397, 274.922 45.201, 276.002 46.502 C 278.384 49.373, 286.545 47.663, 289.930 43.584 C 291.069 42.212, 291.453 42.204, 293.330 43.518 C 296.638 45.835, 300.572 45.315, 304.266 42.072 C 307.220 39.477, 307.718 39.329, 308.628 40.772 C 310.023 42.983, 316.350 42.898, 318.851 40.635 C 320.123 39.483, 321.030 39.240, 321.460 39.935 C 322.590 41.764, 323.756 41.109, 324.459 38.250 C 326.002 31.971, 332.101 21.141, 336.160 17.474 C 338.484 15.375, 340.535 14.104, 340.717 14.650 C 340.899 15.196, 339.912 18.211, 338.524 21.350 C 337.047 24.690, 336 28.920, 336 31.550 C 336 35.336, 336.382 36.217, 338.426 37.148 C 341.653 38.618, 345.247 37.600, 349.256 34.080 C 352.276 31.429, 352.755 31.302, 355.025 32.559 C 362.036 36.440, 372.703 32.416, 376.875 24.316 C 379.667 18.894, 377.013 18.426, 373.989 23.807 C 372.812 25.900, 370.996 28.146, 369.953 28.797 C 368.224 29.877, 368.138 29.768, 368.973 27.571 C 369.612 25.890, 369.307 22.719, 367.965 17.102 C 366.888 12.591, 366.307 7.715, 366.646 6.022 C 367.378 2.358, 366.676 2.233, 363.455 5.455 M 287.129 16.750 C 285.535 19.913, 283.509 24.300, 282.628 26.500 L 281.027 30.500 283.990 27.066 C 288.412 21.941, 293.242 11, 291.082 11 C 290.503 11, 288.724 13.588, 287.129 16.750 M 225.247 16.773 C 217.084 20.443, 215.543 22.190, 219.905 22.830 C 221.171 23.015, 221.929 23.671, 221.640 24.330 C 221.358 24.973, 219.545 29.100, 217.610 33.500 C 213.562 42.707, 210.830 52.393, 211.666 54.573 C 212.352 56.359, 217.162 59.004, 219.700 58.990 C 222.787 58.973, 231.392 54.454, 234.771 51.075 C 238.753 47.093, 239.223 41.970, 235.825 39.590 C 233.657 38.071, 233.664 38.054, 238.258 33.777 C 245.450 27.079, 247.104 20.013, 242.545 15.455 C 239.125 12.034, 235.108 12.340, 225.247 16.773 M 358.567 20.867 C 355.514 26.892, 355.415 28.161, 357.829 30.345 C 360.286 32.569, 362.727 32.434, 363.489 30.033 C 364.071 28.201, 362.543 17.209, 361.571 16.238 C 361.331 15.998, 359.979 18.081, 358.567 20.867 M 231.750 19.206 C 228.461 20.621, 227 21.836, 227 23.155 C 227 24.203, 225.875 27.733, 224.500 31 C 223.125 34.267, 222 37.187, 222 37.490 C 222 38.523, 230.490 33.767, 234.616 30.423 C 241.463 24.872, 243.874 16.883, 238.643 17.081 C 237.464 17.125, 234.363 18.082, 231.750 19.206 M 306.135 21.540 C 302.525 24.577, 297 35.199, 297 39.101 C 297 46.045, 302.466 42.790, 307.414 32.899 C 310.782 26.166, 312.155 19, 310.077 19 C 309.569 19, 307.795 20.143, 306.135 21.540 M 256.312 31.220 C 250.045 37.771, 245.961 49.280, 249.432 50.612 C 251.893 51.557, 256.355 46.839, 259.326 40.151 C 264.149 29.292, 262.587 24.662, 256.312 31.220 M 138.694 35.406 C 134.169 42.220, 130.411 51.106, 128.418 59.696 C 126.673 67.222, 124.161 71.348, 120.022 73.489 C 116.102 75.516, 114.562 73.575, 115.250 67.475 C 115.653 63.901, 116.672 61.984, 120.161 58.233 C 125.654 52.328, 128.500 47.694, 129.925 42.333 C 131.326 37.063, 129.740 32.751, 126.569 33.204 C 121.758 33.892, 111.553 54.400, 110.369 65.760 C 109.870 70.538, 110.097 71.904, 111.721 73.907 C 114.398 77.208, 119.194 76.953, 124.479 73.228 C 127.872 70.836, 128.804 70.565, 129.833 71.666 C 132.102 74.096, 138.205 73.279, 142.164 70.017 C 145.294 67.436, 145.949 67.234, 147.014 68.517 C 147.711 69.357, 149.911 70, 152.088 70 C 156.613 70, 162.205 65.721, 163.851 60.997 C 165.430 56.467, 163.360 56.373, 161.066 60.870 C 158.325 66.243, 154.388 69.278, 151.893 67.943 C 149.052 66.422, 149.525 62.035, 153.593 52.193 C 157.807 41.997, 158.355 41.218, 161.604 40.809 C 164.550 40.439, 164.890 38.628, 162.096 38.188 C 160.637 37.958, 160.032 36.962, 159.807 34.417 C 159.392 29.735, 157.949 29.922, 155.399 34.988 C 153.168 39.419, 151.518 40.959, 148.974 40.985 C 147.793 40.997, 147.534 40.090, 147.830 36.981 C 148.245 32.632, 146.808 30, 144.019 30 C 143.028 30, 140.743 32.319, 138.694 35.406 M 188.072 30.956 C 186.235 32.091, 187.181 36.419, 189.356 36.834 C 191.865 37.312, 193.338 35.639, 192.561 33.193 C 191.816 30.846, 189.842 29.862, 188.072 30.956 M 99.289 38.231 C 95.762 42.050, 86.668 56.267, 83.566 62.810 C 81.137 67.935, 80.207 69, 78.161 69 C 75.839 69, 75.789 69.109, 77.329 70.811 C 78.599 72.214, 78.765 73.333, 78.067 75.768 C 77.141 78.994, 77.648 83, 78.981 83 C 79.392 83, 80.524 80.862, 81.496 78.250 C 82.468 75.638, 83.561 73.165, 83.925 72.756 C 84.289 72.347, 87.820 71.164, 91.771 70.127 L 98.955 68.241 99.604 71.870 C 100.268 75.581, 102.709 79.298, 103.969 78.519 C 104.356 78.280, 104.465 75.591, 104.212 72.542 C 103.787 67.415, 103.911 67, 105.876 67 C 108.566 67, 108.658 64.985, 106 64.290 C 103.622 63.668, 103.558 61.978, 105.457 50 C 106.685 42.255, 106.652 41.283, 105.091 39.063 C 102.750 35.732, 101.731 35.586, 99.289 38.231 M 141.237 41.750 C 139.563 44.913, 137.460 49.281, 136.561 51.458 L 134.928 55.416 137.294 53.193 C 141.024 49.690, 147.215 36, 145.070 36 C 144.635 36, 142.910 38.587, 141.237 41.750 M 181.951 45.750 C 177.927 55.386, 177.133 60.990, 179.462 63.319 C 183.175 67.032, 191.493 63.639, 194.592 57.146 C 197.013 52.073, 194.736 50.638, 192.187 55.631 C 189.700 60.506, 186.528 63.417, 184.537 62.653 C 182.284 61.788, 182.634 58.975, 186.069 50.326 C 188.535 44.119, 188.932 42.147, 188.091 40.300 C 187.514 39.035, 186.625 38, 186.115 38 C 185.604 38, 183.730 41.487, 181.951 45.750 M 125.637 41.163 C 123.086 45.079, 117.732 57.065, 118.286 57.620 C 119.115 58.449, 124.519 49.957, 126.490 44.728 C 128.476 39.460, 128.011 37.520, 125.637 41.163 M 224.043 41.455 C 219.369 42.707, 218.107 44.438, 216.538 51.750 C 215.878 54.826, 215.995 55, 218.725 55 C 224.156 55, 234 47.192, 234 42.884 C 234 39.892, 231.317 39.507, 224.043 41.455 M 225.500 69.410 C 77.201 94.954, 67.521 96.744, 67.845 98.563 C 68.035 99.628, 68.331 100.646, 68.503 100.824 C 68.674 101.003, 100.503 95.715, 139.232 89.074 C 177.961 82.433, 209.991 77, 210.409 77 C 210.828 77, 209.444 78.961, 207.333 81.359 C 194.454 95.991, 198.086 119.488, 214.873 130.134 L 219.392 133 178.196 133 L 137 133 137 135.500 L 137 138 232.070 138 L 327.139 138 326.820 135.750 L 326.500 133.500 285.235 133 C 248.240 132.552, 244.306 132.351, 247.220 131.062 C 252.710 128.633, 259.483 120.993, 261.954 114.441 C 265.175 105.898, 264.565 94.647, 260.474 87.129 C 257.313 81.322, 251.890 76.125, 246.145 73.398 C 244.140 72.446, 242.950 71.522, 243.500 71.344 C 244.050 71.165, 277.045 65.433, 316.822 58.604 C 356.599 51.776, 389.393 45.941, 389.696 45.638 C 391.054 44.280, 388.862 42.007, 386.281 42.097 C 384.752 42.151, 312.400 54.441, 225.500 69.410 M 144.220 47.018 C 142.966 49.209, 139.928 53.266, 137.470 56.034 C 133.452 60.558, 133 61.569, 133 66.033 C 133 70.600, 133.192 71, 135.384 71 C 137.958 71, 145 64.087, 145 61.561 C 145 60.772, 146.342 56.641, 147.983 52.380 C 149.624 48.119, 150.861 44.546, 150.733 44.441 C 150.605 44.335, 149.600 43.976, 148.500 43.642 C 146.925 43.164, 146.015 43.882, 144.220 47.018 M 99.009 46.295 C 93.326 55.147, 86.932 66.265, 87.308 66.642 C 87.558 66.891, 90.178 66.485, 93.131 65.738 L 98.500 64.380 99.660 54.440 C 100.298 48.973, 100.731 44.408, 100.622 44.295 C 100.513 44.183, 99.787 45.083, 99.009 46.295 M 222.969 76.476 C 207.548 81.435, 199.777 100.723, 207.506 114.859 C 213.196 125.265, 223.424 130.855, 234.653 129.696 C 241.109 129.030, 249.174 124.825, 253.078 120.090 C 260.916 110.581, 260.916 94.419, 253.078 84.910 C 246.469 76.893, 233.217 73.180, 222.969 76.476 M 310 111 C 310 118.333, 310.278 120, 311.500 120 C 312.461 120, 313.013 119.012, 313.036 117.250 L 313.072 114.500 315.402 117.349 C 316.734 118.977, 318.474 120.048, 319.462 119.849 C 321.020 119.535, 320.971 119.221, 318.965 116.677 C 317.009 114.195, 316.897 113.561, 318.039 111.427 C 318.753 110.092, 319.652 109, 320.035 109 C 320.418 109, 321.629 111.362, 322.725 114.250 C 325.435 121.388, 327.181 121.439, 329.385 114.448 C 330.360 111.355, 330.927 108.594, 330.645 108.312 C 329.627 107.293, 328.243 109.026, 327.517 112.229 L 326.775 115.500 325.252 111.750 C 323.960 108.569, 323.266 108, 320.679 108 C 318.924 108, 316.646 108.923, 315.314 110.174 L 313 112.349 313 107.174 C 313 103.242, 312.640 102, 311.500 102 C 310.278 102, 310 103.667, 310 111 M 359 104.969 C 359 107.125, 358.611 107.788, 357.577 107.391 C 355.545 106.611, 352 110.536, 352 113.566 C 352 117.909, 353.734 120, 357.335 120 C 362.199 120, 363 118.558, 363 109.800 C 363 102.667, 362.829 102, 361 102 C 359.449 102, 359 102.667, 359 104.969 M 106 111.427 C 106 116.476, 106.411 120, 107 120 C 107.550 120, 108.037 117.638, 108.082 114.750 L 108.164 109.500 110.587 114.806 C 111.920 117.724, 113.378 119.884, 113.828 119.606 C 114.279 119.328, 115.248 117.278, 115.983 115.050 C 117.742 109.723, 119 109.911, 119 115.500 C 119 118.833, 119.389 120, 120.500 120 C 121.716 120, 122 118.389, 122 111.500 C 122 103.841, 121.814 103, 120.116 103 C 118.766 103, 117.589 104.585, 115.962 108.593 L 113.692 114.186 111.437 108.843 C 110.197 105.904, 108.466 103.355, 107.591 103.177 C 106.235 102.901, 106 104.119, 106 111.427 M 275.714 103.620 C 275.321 104.012, 275 107.858, 275 112.167 C 275 119.333, 275.170 120, 277 120 C 278.611 120, 279 119.333, 279 116.570 C 279 113.888, 279.445 113.069, 281.040 112.820 C 282.161 112.644, 283.079 112.050, 283.079 111.500 C 283.079 110.950, 282.161 110.356, 281.040 110.180 C 277.847 109.680, 278.414 106.200, 281.750 105.816 C 283.262 105.642, 284.500 105.050, 284.500 104.500 C 284.500 103.336, 276.772 102.562, 275.714 103.620 M 294.543 103.931 C 293.803 105.128, 295.684 106.313, 297.016 105.490 C 298.135 104.799, 297.400 103, 296 103 C 295.515 103, 294.859 103.419, 294.543 103.931 M 335.335 105.175 C 335.702 106.576, 335.299 107.797, 334.202 108.607 C 332.863 109.597, 332.759 110.128, 333.717 111.100 C 334.681 112.078, 335.068 111.987, 335.574 110.667 C 336.421 108.459, 338 108.533, 338 110.781 C 338 111.851, 336.772 113.025, 334.923 113.723 C 332.525 114.628, 331.918 115.394, 332.173 117.192 C 332.447 119.129, 333.183 119.549, 336.750 119.807 L 341 120.115 341 114.164 C 341 109.942, 340.587 108.055, 339.578 107.668 C 338.707 107.334, 338.364 106.323, 338.694 105.061 C 339.120 103.434, 338.763 103, 337 103 C 335.199 103, 334.877 103.421, 335.335 105.175 M 126.250 108.031 C 123.932 108.963, 123.329 110.467, 124.887 111.430 C 125.374 111.731, 126.325 111.313, 127 110.500 C 127.675 109.687, 128.626 109.269, 129.113 109.570 C 130.715 110.560, 130.045 111.870, 127.250 113.209 C 125.341 114.124, 124.500 115.287, 124.500 117.013 C 124.500 119.248, 124.906 119.500, 128.500 119.500 L 132.500 119.500 132.814 114.533 C 133.055 110.704, 132.725 109.272, 131.373 108.283 C 129.366 106.816, 129.284 106.812, 126.250 108.031 M 136.750 108.080 C 134.186 109.574, 134.589 112.856, 137.500 114.182 C 138.875 114.808, 140 115.924, 140 116.661 C 140 118.317, 138.785 118.385, 137.217 116.817 C 135.743 115.343, 134.551 116.387, 135.345 118.457 C 136.229 120.761, 141.688 120.451, 142.988 118.023 C 143.828 116.453, 143.630 115.630, 142.023 114.023 C 140.910 112.910, 139.550 112, 139 112 C 138.450 112, 138 111.325, 138 110.500 C 138 108.698, 139.166 108.566, 140.783 110.183 C 141.434 110.834, 142.311 111.022, 142.732 110.602 C 143.153 110.181, 142.624 109.198, 141.557 108.418 C 139.284 106.756, 139.052 106.739, 136.750 108.080 M 146.750 108.080 C 144.186 109.574, 144.589 112.856, 147.500 114.182 C 148.875 114.808, 150 115.924, 150 116.661 C 150 118.317, 148.785 118.385, 147.217 116.817 C 145.743 115.343, 144.551 116.387, 145.345 118.457 C 146.229 120.761, 151.688 120.451, 152.988 118.023 C 153.828 116.453, 153.630 115.630, 152.023 114.023 C 150.910 112.910, 149.550 112, 149 112 C 148.450 112, 148 111.325, 148 110.500 C 148 108.698, 149.166 108.566, 150.783 110.183 C 151.434 110.834, 152.311 111.022, 152.732 110.602 C 153.153 110.181, 152.624 109.198, 151.557 108.418 C 149.284 106.756, 149.052 106.739, 146.750 108.080 M 157.206 108.568 C 155.974 109.431, 155.244 110.585, 155.583 111.134 C 155.959 111.742, 156.873 111.520, 157.930 110.563 C 159.555 109.092, 161 109.351, 161 111.112 C 161 111.540, 159.762 112.484, 158.250 113.209 C 156.341 114.124, 155.500 115.287, 155.500 117.013 C 155.500 119.248, 155.906 119.500, 159.500 119.500 L 163.500 119.500 163.808 114.672 C 164.259 107.609, 161.809 105.344, 157.206 108.568 M 167.951 108.839 C 165.877 110.518, 165.719 111.088, 166.719 113.283 C 167.350 114.667, 167.572 116.094, 167.213 116.453 C 166.854 116.812, 166.442 118.876, 166.297 121.038 C 166.066 124.500, 166.334 125.046, 168.536 125.598 C 171.511 126.345, 176.615 124.445, 177.445 122.282 C 178.308 120.034, 176.166 118, 172.937 118 C 171.386 118, 169.840 117.550, 169.500 117 C 169.160 116.450, 169.696 115.993, 170.691 115.985 C 173.331 115.962, 175.301 114.449, 175.458 112.324 C 175.533 111.302, 175.937 109.910, 176.356 109.232 C 176.862 108.415, 176.453 108, 175.141 108 C 174.053 108, 172.526 107.755, 171.747 107.456 C 170.967 107.157, 169.259 107.779, 167.951 108.839 M 180.223 108.557 C 177.725 110.306, 177.088 116.688, 179.200 118.800 C 181.204 120.804, 185.796 120.249, 187.081 117.848 C 188.100 115.945, 188.017 115.781, 186.366 116.422 C 185.340 116.822, 184.275 117.168, 184 117.193 C 179.917 117.555, 179.935 114.163, 184.021 113.346 C 188.011 112.548, 188.500 111.500, 186.036 109.036 C 183.591 106.591, 183.089 106.549, 180.223 108.557 M 287.250 108.031 C 285.297 108.816, 285 109.665, 285 114.468 C 285 119.333, 285.241 120, 287 120 C 288.761 120, 289 119.333, 289 114.433 C 289 109.320, 289.163 108.917, 291 109.500 C 293.352 110.246, 293.738 108.497, 291.418 107.607 C 290.548 107.273, 289.761 107.029, 289.668 107.063 C 289.576 107.098, 288.488 107.534, 287.250 108.031 M 301.750 108.080 C 299.177 109.579, 299.617 112.554, 302.748 114.835 C 304.260 115.936, 305.171 117.163, 304.772 117.561 C 304.374 117.959, 303.343 117.700, 302.482 116.985 C 301.437 116.118, 300.582 116.018, 299.915 116.685 C 298.386 118.214, 301.407 120.199, 304.690 119.822 C 308.640 119.369, 309.194 114.977, 305.548 113.026 C 304.146 112.276, 303 111.059, 303 110.323 C 303 109.244, 303.380 109.221, 304.955 110.204 C 307.571 111.838, 309.023 110.221, 306.557 108.418 C 304.284 106.756, 304.052 106.739, 301.750 108.080 M 345.250 108.031 C 343.297 108.816, 343 109.665, 343 114.468 C 343 119.333, 343.241 120, 345 120 C 346.761 120, 347 119.333, 347 114.433 C 347 109.320, 347.163 108.917, 349 109.500 C 351.352 110.246, 351.738 108.497, 349.418 107.607 C 348.548 107.273, 347.761 107.029, 347.668 107.063 C 347.576 107.098, 346.488 107.534, 345.250 108.031 M 294 114 C 294 119.333, 294.222 120, 296 120 C 297.778 120, 298 119.333, 298 114 C 298 108.667, 297.778 108, 296 108 C 294.222 108, 294 108.667, 294 114 M 169.336 110.567 C 168.545 112.629, 170.618 114.782, 172.033 113.367 C 173.178 112.222, 172.314 109, 170.862 109 C 170.353 109, 169.667 109.705, 169.336 110.567 M 180.991 110.511 C 179.962 111.750, 180.111 112, 181.878 112 C 183.045 112, 184 111.577, 184 111.059 C 184 109.327, 182.240 109.006, 180.991 110.511 M 355.950 111.093 C 354.556 113.698, 355.533 118, 357.519 118 C 358.608 118, 359 116.808, 359 113.500 C 359 108.678, 357.765 107.703, 355.950 111.093 M 127.667 114.667 C 126.449 115.885, 126.978 118, 128.500 118 C 129.333 118, 130 117.111, 130 116 C 130 114.008, 128.934 113.399, 127.667 114.667 M 159.250 114.662 C 157.492 115.372, 157.688 118, 159.500 118 C 160.333 118, 161 117.111, 161 116 C 161 114.900, 160.887 114.036, 160.750 114.079 C 160.613 114.122, 159.938 114.385, 159.250 114.662 M 336.200 115.200 C 334.567 116.833, 334.692 118, 336.500 118 C 337.333 118, 338 117.111, 338 116 C 338 113.669, 337.814 113.586, 336.200 115.200 M 169.417 121.134 C 167.878 123.625, 171.947 124.974, 173.900 122.621 C 174.813 121.520, 174.530 121.143, 172.498 120.755 C 171.098 120.487, 169.711 120.658, 169.417 121.134" stroke="none" fill="#138d48" fill-rule="evenodd"/></svg>