<?xml version="1.0" standalone="no"?>
<!DOCTYPE svg PUBLIC "-//W3C//DTD SVG 20010904//EN"
 "http://www.w3.org/TR/2001/REC-SVG-20010904/DTD/svg10.dtd">
<svg version="1.0" xmlns="http://www.w3.org/2000/svg"
 width="587.000000pt" height="248.000000pt" viewBox="0 0 587.000000 248.000000"
 preserveAspectRatio="xMidYMid meet">

<g transform="translate(0.000000,248.000000) scale(0.100000,-0.100000)"
fill="#000000" stroke="none">
<path d="M4222 2318 c-5 -7 -14 -29 -20 -48 -13 -51 -68 -144 -77 -131 -10 18
-25 3 -25 -26 0 -32 -27 -78 -56 -93 -52 -29 -58 29 -14 131 24 55 29 73 20
89 -17 31 -50 24 -97 -22 -43 -42 -43 -42 -43 -16 0 15 -4 29 -9 32 -13 8 -33
-28 -71 -124 -47 -122 -50 -126 -76 -141 -19 -10 -27 -10 -36 -1 -14 14 -5 52
36 147 24 58 26 105 5 105 -5 0 -14 -11 -21 -24 l-11 -25 -17 21 c-41 51 -127
-20 -198 -161 -34 -69 -56 -100 -78 -113 -30 -18 -33 -18 -49 -2 -28 29 -12
100 35 149 105 110 145 255 71 255 -36 0 -132 -186 -152 -297 -13 -70 -30
-105 -65 -132 -21 -16 -30 -18 -40 -10 -20 17 -18 33 21 122 38 88 42 109 22
126 -11 8 -17 5 -26 -16 -11 -24 -14 -26 -22 -10 -6 9 -22 17 -36 17 -94 0
-217 -205 -158 -263 25 -26 70 -21 107 12 l32 29 27 -21 c34 -25 72 -17 108
22 l26 28 26 -20 c23 -17 32 -18 61 -8 20 6 46 23 58 36 l24 25 22 -21 c29
-27 71 -19 109 21 28 29 29 29 42 10 17 -24 69 -27 100 -5 12 8 27 13 35 10 9
-3 22 19 41 69 31 84 80 152 127 180 33 19 33 19 27 0 -3 -10 -17 -46 -31 -79
-28 -65 -33 -114 -14 -133 28 -28 116 -3 138 39 11 20 12 20 32 2 26 -24 101
-23 150 1 40 19 78 70 78 102 -1 14 -5 11 -17 -11 -19 -36 -63 -85 -77 -85 -6
0 -5 5 2 12 17 17 15 70 -4 135 -9 31 -14 71 -11 89 6 36 -10 47 -31 22z
m-712 -65 c0 -43 -109 -224 -110 -183 0 8 20 56 45 107 43 89 65 114 65 76z
m717 -126 c4 -45 2 -66 -6 -72 -19 -11 -55 2 -69 25 -10 17 -8 29 19 82 37 72
46 66 56 -35z m-523 16 c-4 -71 -85 -203 -126 -203 -46 0 -4 140 63 208 40 41
65 38 63 -5z m-490 -87 c-2 -72 -92 -215 -128 -203 -40 13 13 169 76 222 39
33 53 28 52 -19z"/>
<path d="M2910 2225 c-105 -41 -150 -61 -150 -67 0 -4 12 -11 26 -14 14 -4 23
-12 21 -18 -60 -145 -88 -222 -93 -258 -6 -40 -4 -47 17 -62 32 -22 81 -20
132 5 88 44 128 109 91 150 -9 10 -24 19 -33 19 -8 0 10 23 41 50 83 74 98
145 41 190 -30 23 -45 24 -93 5z m93 -64 c-2 -41 -54 -99 -128 -142 -72 -42
-79 -38 -51 25 13 30 27 68 31 86 5 25 16 36 48 50 23 11 56 18 72 17 27 -2
30 -5 28 -36z m-74 -205 c16 -19 3 -43 -44 -85 -40 -35 -102 -64 -122 -57 -17
7 -16 32 2 88 14 41 20 46 58 55 62 15 93 15 106 -1z"/>
<path d="M1989 2028 c-56 -79 -119 -236 -119 -300 0 -22 -81 -108 -103 -108
-23 0 -30 16 -29 67 1 38 8 51 52 101 84 94 124 204 88 240 -22 22 -38 12 -75
-45 -76 -119 -122 -273 -101 -335 18 -51 82 -50 141 1 32 29 34 29 45 10 7
-11 23 -19 38 -19 34 0 91 27 108 51 13 18 13 18 31 -1 35 -39 118 -12 150 49
28 55 15 67 -15 14 -33 -57 -60 -78 -90 -68 -32 10 -25 76 18 179 34 81 41 91
70 98 33 9 35 28 4 28 -12 0 -17 8 -17 30 0 44 -17 40 -42 -10 -17 -35 -28
-46 -53 -51 l-31 -7 6 38 c7 42 -7 80 -30 80 -8 0 -29 -19 -46 -42z m47 -75
c-18 -53 -87 -154 -93 -136 -5 14 61 160 85 186 23 26 27 6 8 -50z m-166 6 c0
-39 -92 -191 -106 -176 -9 8 84 197 96 197 6 0 10 -9 10 -21z m202 -121 c-38
-110 -69 -163 -108 -180 -40 -18 -57 5 -49 66 5 42 14 59 54 101 27 28 56 66
65 83 13 25 23 32 45 32 l29 0 -36 -102z"/>
<path d="M2464 2045 c-9 -22 22 -53 37 -38 15 15 7 47 -14 51 -9 2 -20 -4 -23
-13z"/>
<path d="M1578 1973 c-34 -36 -107 -151 -147 -230 -23 -46 -37 -63 -51 -63
-11 0 -20 -4 -20 -10 0 -5 5 -10 10 -10 6 0 8 -20 4 -55 -9 -70 6 -71 34 -2
22 52 23 53 80 65 31 7 67 15 80 18 19 5 22 2 22 -19 0 -34 17 -77 30 -77 6 0
10 24 10 55 0 50 2 55 23 55 l22 1 -22 18 c-26 22 -28 46 -12 156 18 116 -8
156 -63 98z m26 -48 c-3 -8 -9 -56 -12 -106 l-7 -92 -64 -18 c-36 -10 -66 -17
-68 -16 -4 5 95 176 124 215 26 34 36 41 27 17z"/>
<path d="M2421 1928 c-56 -122 -61 -177 -20 -199 46 -24 139 44 139 102 0 20
-5 16 -26 -21 -28 -51 -49 -70 -76 -70 -26 0 -23 51 7 125 46 111 24 169 -24
63z"/>
<path d="M2860 1674 c-872 -150 -1586 -273 -1587 -274 -2 0 -3 -9 -3 -20 0
-16 5 -19 23 -15 12 3 326 57 697 120 371 63 688 118 704 121 l28 6 -39 -39
c-82 -82 -113 -214 -78 -328 23 -71 95 -153 167 -189 l52 -26 -432 0 c-425 0
-432 0 -432 -20 0 -20 7 -20 945 -20 938 0 945 0 945 20 0 20 -7 20 -427 20
l-428 1 51 25 c62 29 127 97 157 162 17 37 22 66 22 132 0 75 -4 91 -30 138
-35 64 -111 136 -161 152 -19 7 -34 14 -32 15 4 4 1460 255 1477 255 5 0 7 9
4 20 -3 11 -13 19 -22 19 -9 -1 -729 -124 -1601 -275z m165 -78 c93 -43 165
-153 165 -252 0 -96 -74 -208 -165 -250 -56 -27 -156 -31 -212 -11 -60 22
-117 72 -148 128 -26 47 -30 64 -30 134 0 70 4 87 30 134 31 56 88 106 148
128 56 20 156 16 212 -11z"/>
<path d="M3690 1260 c0 -73 3 -90 15 -90 10 0 15 10 15 28 l1 27 24 -27 c13
-16 32 -28 41 -28 13 0 11 7 -11 36 l-27 35 23 25 c19 20 20 24 6 24 -9 0 -22
-9 -29 -20 -20 -32 -28 -24 -28 30 0 38 -4 50 -15 50 -12 0 -15 -17 -15 -90z"/>
<path d="M4187 1343 c-4 -3 -7 -17 -7 -30 0 -16 -6 -23 -19 -23 -11 0 -27 -10
-35 -22 -35 -49 -8 -101 48 -96 l31 3 3 88 c3 79 -3 99 -21 80z m-7 -108 c0
-32 -4 -45 -14 -45 -25 0 -36 56 -14 78 21 21 28 13 28 -33z"/>
<path d="M1650 1255 c0 -50 4 -85 10 -85 6 0 10 24 11 53 l1 52 26 -55 26 -55
25 55 26 55 3 -52 c2 -39 7 -53 18 -53 12 0 14 15 12 83 -2 62 -6 82 -17 82
-16 0 -24 -13 -47 -70 l-17 -40 -25 58 c-36 84 -52 76 -52 -28z"/>
<path d="M3347 1333 c-4 -3 -7 -42 -7 -85 0 -70 2 -79 18 -76 12 2 18 14 20
41 3 32 7 37 28 37 14 0 22 4 19 10 -3 6 -15 10 -26 10 -14 0 -19 7 -19 25 0
20 5 25 25 25 14 0 25 5 25 10 0 11 -73 14 -83 3z"/>
<path d="M3540 1325 c0 -8 5 -15 10 -15 6 0 10 7 10 15 0 8 -4 15 -10 15 -5 0
-10 -7 -10 -15z"/>
<path d="M3944 1329 c-7 -12 15 -31 28 -23 4 3 8 12 8 20 0 17 -26 19 -36 3z"/>
<path d="M1836 1275 c-3 -9 0 -15 8 -15 8 0 16 5 18 12 5 15 28 1 28 -17 0 -7
-10 -15 -21 -17 -54 -8 -50 -68 5 -68 37 0 46 12 46 60 0 16 -3 35 -6 44 -8
21 -70 22 -78 1z m54 -64 c0 -23 -16 -36 -25 -21 -9 14 1 40 15 40 5 0 10 -9
10 -19z"/>
<path d="M1945 1280 c-11 -17 4 -46 30 -58 26 -12 34 -32 12 -32 -7 0 -18 5
-25 12 -15 15 -26 4 -18 -17 4 -11 16 -15 38 -13 28 2 34 8 36 30 3 22 -2 30
-22 40 -14 6 -26 17 -26 25 0 16 12 17 28 1 13 -13 27 -5 17 11 -8 14 -62 14
-70 1z"/>
<path d="M2045 1280 c-11 -17 4 -46 30 -58 26 -12 34 -32 12 -32 -7 0 -18 5
-25 12 -15 15 -26 4 -18 -17 4 -11 16 -15 38 -13 28 2 34 8 36 30 3 22 -2 30
-22 40 -14 6 -26 17 -26 25 0 16 12 17 28 1 13 -13 27 -5 17 11 -8 14 -62 14
-70 1z"/>
<path d="M2155 1280 c-10 -17 3 -26 17 -12 17 17 28 15 28 -6 0 -11 -12 -22
-31 -29 -24 -9 -30 -17 -27 -35 3 -20 9 -23 43 -23 l40 0 0 55 c0 54 0 55 -32
58 -17 2 -34 -2 -38 -8z m45 -69 c0 -23 -16 -36 -25 -21 -9 14 1 40 15 40 5 0
10 -9 10 -19z"/>
<path d="M2261 1272 c-6 -11 -6 -24 0 -35 6 -9 7 -22 4 -27 -4 -6 -9 -26 -11
-45 -4 -30 0 -37 20 -46 34 -16 81 8 81 41 0 20 -6 26 -30 28 -35 4 -59 22
-29 22 26 0 44 19 44 46 0 12 6 25 13 27 6 3 -9 6 -35 6 -36 1 -50 -3 -57 -17z
m56 -8 c8 -21 -13 -42 -28 -27 -13 13 -5 43 11 43 6 0 13 -7 17 -16z m13 -104
c13 -9 13 -11 0 -20 -8 -5 -19 -10 -25 -10 -19 0 -38 18 -31 29 9 14 36 14 56
1z"/>
<path d="M2382 1278 c-15 -15 -16 -63 -2 -89 15 -27 66 -26 81 3 9 17 9 20 -2
15 -8 -3 -22 -8 -31 -12 -11 -4 -20 0 -27 14 -10 18 -8 21 16 27 54 11 55 12
43 34 -12 23 -59 27 -78 8z m48 -19 c0 -5 -10 -9 -21 -9 -18 0 -19 2 -9 15 12
15 30 12 30 -6z"/>
<path d="M3450 1229 c0 -78 24 -78 28 0 3 46 5 51 23 46 11 -4 19 -2 19 4 0 6
-16 11 -35 11 l-35 0 0 -61z"/>
<path d="M3540 1229 c0 -81 24 -77 28 4 2 46 0 57 -13 57 -12 0 -15 -13 -15
-61z"/>
<path d="M3597 1283 c-14 -14 -6 -38 21 -59 30 -25 23 -46 -9 -26 -18 12 -20
11 -17 -5 2 -13 12 -18 38 -18 49 0 54 34 10 65 -22 16 -28 26 -21 33 7 7 15
6 26 -3 17 -14 31 -8 20 9 -7 12 -58 15 -68 4z"/>
<path d="M3806 1268 c21 -69 32 -92 42 -96 12 -4 34 39 47 91 11 41 -10 33
-27 -10 l-14 -38 -13 38 c-14 40 -48 55 -35 15z"/>
<path d="M3925 1280 c-10 -17 3 -26 17 -12 16 16 25 15 32 -4 4 -10 -3 -18
-23 -25 -56 -20 -46 -73 13 -67 31 3 31 4 31 58 0 54 0 55 -32 58 -17 2 -34
-2 -38 -8z m53 -72 c-2 -12 -9 -23 -15 -26 -19 -6 -29 28 -12 39 23 14 31 10
27 -13z"/>
<path d="M4030 1229 c0 -78 24 -78 28 0 3 46 5 51 23 46 11 -4 19 -2 19 4 0 6
-16 11 -35 11 l-35 0 0 -61z"/>
<path d="M2630 550 c0 -82 3 -100 15 -100 12 0 15 18 15 100 0 82 -3 100 -15
100 -12 0 -15 -18 -15 -100z"/>
<path d="M3147 643 c-12 -12 -7 -31 9 -37 21 -8 45 11 37 30 -5 14 -34 19 -46
7z m33 -11 c0 -13 -12 -22 -22 -16 -10 6 -1 24 13 24 5 0 9 -4 9 -8z"/>
<path d="M1870 545 l0 -95 55 0 c30 0 55 5 55 10 0 6 -18 10 -40 10 l-40 0 0
85 c0 69 -3 85 -15 85 -12 0 -15 -17 -15 -95z"/>
<path d="M2457 622 c-24 -26 -38 -71 -31 -100 23 -96 145 -96 169 0 9 34 -11
95 -35 108 -30 16 -85 12 -103 -8z m97 -24 c36 -51 9 -128 -44 -128 -35 0 -60
31 -60 75 0 68 69 103 104 53z"/>
<path d="M2896 548 c-3 -50 -4 -94 -1 -96 12 -12 19 13 24 81 l6 72 24 -78
c14 -42 29 -76 35 -74 6 2 22 34 37 72 25 68 26 68 32 36 4 -19 7 -51 7 -72 0
-22 5 -39 10 -39 6 0 10 28 10 64 0 136 -25 164 -59 69 -38 -103 -35 -102 -61
-19 -17 55 -28 76 -40 76 -14 0 -18 -15 -24 -92z"/>
<path d="M2010 580 c-16 -10 -8 -13 26 -11 11 1 26 -4 32 -12 10 -11 5 -16
-27 -26 -43 -12 -56 -33 -41 -61 8 -15 20 -19 55 -18 l45 2 0 52 c0 35 -5 58
-16 68 -17 18 -51 21 -74 6z m70 -69 c0 -25 -14 -41 -36 -41 -17 0 -24 6 -24
19 0 11 6 22 13 24 21 9 47 7 47 -2z"/>
<path d="M2140 520 c0 -56 3 -70 15 -70 11 0 15 12 15 49 0 40 4 53 22 65 26
19 15 35 -12 18 -12 -7 -20 -8 -20 -2 0 5 -4 10 -10 10 -6 0 -10 -30 -10 -70z"/>
<path d="M2242 578 c-20 -20 -13 -46 18 -68 35 -25 31 -40 -11 -40 -18 0 -28
-4 -24 -10 3 -5 19 -10 34 -10 55 0 70 50 21 75 -37 19 -40 45 -5 45 14 0 25
5 25 10 0 14 -43 13 -58 -2z"/>
<path d="M2707 583 c-14 -13 -6 -18 25 -18 42 0 49 -23 9 -31 -38 -8 -54 -26
-49 -56 3 -20 9 -23 53 -25 l50 -1 -3 56 c-2 31 -9 63 -14 70 -11 13 -60 17
-71 5z m61 -85 c-3 -25 -34 -36 -51 -19 -14 14 9 41 35 41 14 0 19 -6 16 -22z"/>
<path d="M3131 581 c-11 -7 -6 -10 19 -13 44 -4 50 -25 9 -35 -74 -20 -63 -77
15 -79 l46 -1 0 46 c0 73 -42 112 -89 82z m57 -83 c-4 -31 -48 -39 -48 -10 0
20 12 30 38 31 8 1 12 -8 10 -21z"/>
<path d="M3260 520 c0 -81 17 -95 22 -19 6 95 68 93 68 -2 0 -27 5 -49 10 -49
6 0 10 27 10 60 0 55 -2 61 -26 72 -20 9 -30 9 -45 0 -11 -7 -19 -8 -19 -2 0
5 -4 10 -10 10 -6 0 -10 -30 -10 -70z"/>
<path d="M3426 574 c-24 -24 -18 -42 22 -63 33 -17 28 -41 -8 -41 -16 0 -30
-4 -30 -10 0 -5 16 -10 35 -10 58 0 71 55 19 78 -32 15 -32 42 2 42 14 0 23 4
19 10 -9 15 -42 12 -59 -6z"/>
<path d="M3536 574 c-24 -24 -18 -42 22 -63 33 -17 28 -41 -8 -41 -16 0 -30
-4 -30 -10 0 -5 16 -10 35 -10 58 0 71 55 19 78 -32 15 -32 42 2 42 14 0 23 4
19 10 -9 15 -42 12 -59 -6z"/>
<path d="M3651 564 c-12 -15 -21 -37 -21 -50 0 -54 78 -85 113 -46 25 28 22
87 -5 106 -33 23 -64 19 -87 -10z m81 -19 c16 -35 -3 -75 -36 -75 -25 0 -36
16 -36 54 0 48 53 63 72 21z"/>
<path d="M3797 583 c-4 -3 -7 -35 -7 -70 0 -48 3 -63 14 -63 11 0 16 15 18 51
6 96 68 89 68 -8 0 -24 5 -43 10 -43 17 0 12 107 -6 124 -18 18 -50 21 -59 6
-5 -8 -11 -8 -19 -1 -7 6 -16 8 -19 4z"/>
<path d="M2335 530 c-4 -6 8 -10 29 -10 20 0 36 5 36 10 0 6 -13 10 -29 10
-17 0 -33 -4 -36 -10z"/>
<path d="M2621 331 c-10 -6 -14 -25 -13 -57 3 -57 12 -73 12 -21 0 26 4 37 15
37 10 0 15 -11 15 -35 0 -19 5 -35 10 -35 6 0 10 18 10 40 0 36 -2 40 -25 40
-31 0 -33 18 -2 30 12 5 15 9 7 9 -8 0 -21 -3 -29 -8z"/>
<path d="M2960 317 c0 -18 -5 -23 -21 -23 -12 1 -26 -7 -33 -16 -15 -25 4 -53
38 -54 25 -1 26 1 26 57 0 33 -2 59 -5 59 -3 0 -5 -10 -5 -23z m-5 -57 c0 -15
-6 -26 -16 -28 -19 -3 -31 21 -22 43 9 25 38 13 38 -15z"/>
<path d="M2283 304 c-15 -24 -15 -29 -2 -53 10 -18 24 -27 44 -28 19 -1 22 0
10 4 -31 8 -45 23 -45 48 0 27 15 41 50 48 21 4 20 4 -7 6 -25 1 -37 -5 -50
-25z"/>
<path d="M2512 304 c-7 -8 -8 -15 -2 -19 6 -3 10 -19 10 -36 0 -21 5 -29 18
-28 10 0 12 3 5 6 -15 5 -18 60 -4 65 5 2 4 8 -3 14 -8 8 -15 7 -24 -2z"/>
<path d="M2374 286 c-3 -8 -4 -25 -2 -38 2 -18 10 -23 33 -25 27 -2 28 -1 6 5
-37 11 -38 32 -1 32 28 0 30 2 20 20 -12 23 -48 27 -56 6z m46 -6 c0 -5 -9
-10 -21 -10 -11 0 -17 5 -14 10 3 6 13 10 21 10 8 0 14 -4 14 -10z"/>
<path d="M2461 256 c2 -34 3 -36 6 -11 3 17 9 35 14 41 5 7 3 11 -6 11 -11 0
-15 -11 -14 -41z"/>
<path d="M2573 260 c0 -25 2 -35 4 -22 2 12 2 32 0 45 -2 12 -4 2 -4 -23z"/>
<path d="M2694 286 c-3 -8 -4 -25 -2 -38 2 -18 10 -23 33 -25 27 -2 28 -1 6 5
-37 11 -38 32 -1 32 28 0 30 2 20 20 -12 23 -48 27 -56 6z m46 -6 c0 -5 -9
-10 -21 -10 -11 0 -17 5 -14 10 3 6 13 10 21 10 8 0 14 -4 14 -10z"/>
<path d="M2781 256 c2 -34 3 -36 6 -11 3 17 9 35 14 41 5 7 3 11 -6 11 -11 0
-15 -11 -14 -41z"/>
<path d="M2848 293 c12 -2 22 -8 22 -11 0 -4 -10 -12 -22 -17 -34 -15 -29 -39
8 -43 31 -3 31 -3 25 35 -5 32 -11 38 -31 40 -22 1 -22 1 -2 -4z m20 -45 c-6
-18 -28 -21 -28 -4 0 9 7 16 16 16 9 0 14 -5 12 -12z"/>
<path d="M3041 256 l2 -41 6 34 c8 43 28 51 37 14 10 -46 12 -50 13 -16 1 30
16 51 28 40 3 -4 9 -21 14 -39 8 -33 8 -33 6 7 l-2 40 -52 1 -53 1 1 -41z"/>
<path d="M3193 293 c23 -6 22 -19 -3 -26 -12 -3 -20 -14 -20 -26 0 -17 6 -21
30 -21 25 0 30 4 30 24 0 39 -11 56 -34 55 -16 -1 -17 -2 -3 -6z m17 -48 c0
-8 -7 -15 -15 -15 -16 0 -20 12 -8 23 11 12 23 8 23 -8z"/>
<path d="M3255 289 c-4 -5 0 -18 9 -28 20 -22 20 -28 -1 -34 -14 -4 -13 -5 4
-6 32 -2 40 19 14 40 -20 17 -20 18 -4 28 16 9 16 10 1 11 -9 0 -20 -5 -23
-11z"/>
<path d="M3320 281 c0 -10 7 -21 15 -25 20 -7 19 -24 -2 -29 -14 -4 -12 -5 5
-6 16 -1 22 5 22 19 0 11 -7 23 -15 26 -20 8 -19 21 3 27 13 4 11 5 -5 6 -16
1 -23 -5 -23 -18z"/>
<path d="M3384 286 c-3 -8 -4 -25 -2 -38 2 -18 9 -23 33 -23 28 0 30 3 30 35
0 31 -3 35 -28 38 -17 2 -29 -2 -33 -12z m51 -26 c0 -16 -6 -26 -18 -28 -19
-4 -32 20 -23 44 9 25 41 13 41 -16z"/>
<path d="M3470 258 c0 -21 5 -38 10 -38 6 0 10 13 10 28 0 15 5 33 11 39 9 9
7 12 -10 10 -17 -1 -21 -8 -21 -39z"/>
</g>
</svg>
