<svg xmlns="http://www.w3.org/2000/svg" width="480" height="400" viewBox="0 0 480 400" version="1.1"><path d="M 217.871 39.476 C 210.271 42.273, 203.763 47.870, 200.130 54.732 C 199.142 56.599, 199.348 57.753, 201.386 61.775 C 205.851 70.587, 207.258 77.379, 206.828 88.062 C 206.449 97.500, 206.298 98.050, 202.596 103.425 C 200.484 106.491, 198.361 109, 197.878 109 C 196.263 109, 196.976 105.295, 199.442 100.876 C 203.138 94.254, 204.210 88.072, 202.987 80.420 C 200.295 63.569, 195.835 57.931, 185.132 57.848 C 176.306 57.779, 168.448 63.223, 166.111 71.025 C 163.016 81.353, 165.711 97.691, 172.099 107.336 C 173.830 109.949, 174.950 112.383, 174.588 112.745 C 174.227 113.107, 166.634 112.577, 157.715 111.568 C 148.797 110.559, 138.125 109.367, 134 108.920 C 122.969 107.725, 93.277 107.832, 86.465 109.091 C 75.084 111.195, 69.512 116.109, 66.944 126.309 C 66.039 129.904, 66.135 131.986, 67.445 137.130 C 69.645 145.771, 78.780 164.408, 91.285 185.767 C 106.010 210.917, 107.355 213.399, 111.950 223.864 C 114.211 229.014, 117.404 235.180, 119.045 237.566 C 122.759 242.963, 124.850 247.819, 130.605 264.404 C 133.105 271.607, 138.059 283.350, 141.615 290.500 C 149.635 306.624, 151.967 316.583, 151.987 334.782 C 152.002 348.833, 152.912 351.959, 158.386 356.766 C 162.378 360.270, 166.903 361.027, 168.971 358.534 C 169.640 357.728, 170.824 352.441, 171.602 346.784 C 172.380 341.128, 173.755 332.900, 174.656 328.500 C 175.558 324.100, 176.341 315.550, 176.398 309.500 C 176.498 298.680, 176.448 298.425, 173.301 293.894 C 171.542 291.361, 168.957 286.698, 167.556 283.532 C 165.611 279.132, 162.239 274.973, 153.255 265.891 C 146.790 259.355, 141.362 253.369, 141.193 252.589 C 141.024 251.809, 141.860 250.862, 143.050 250.484 C 145.410 249.735, 148.436 251.685, 158.432 260.392 C 167.548 268.333, 167.238 265.641, 157.093 248.792 C 148.672 234.806, 145.904 229.430, 146.710 228.624 C 147.053 228.281, 148.337 228, 149.563 228 C 152.420 228, 156.309 232.452, 164.562 245.170 C 168.155 250.707, 171.344 254.990, 171.647 254.686 C 173.172 253.161, 163.146 232.820, 154.311 219.513 C 150.746 214.145, 150.255 211.863, 152.296 210.169 C 153.244 209.382, 154.296 209.554, 156.206 210.807 C 160.704 213.758, 164.693 219.048, 173.129 233.250 C 184.687 252.709, 186.139 251.255, 177.460 228.914 C 174.985 222.541, 171.618 215.213, 169.980 212.629 C 166.719 207.488, 166.203 203.906, 168.454 202.039 C 170.542 200.306, 175.176 203.275, 178.147 208.250 C 179.441 210.417, 183.087 216.081, 186.250 220.836 C 189.412 225.591, 192.685 231.545, 193.522 234.067 C 194.516 237.058, 198.231 242.415, 204.201 249.465 C 213.313 260.225, 213.366 260.267, 215.101 258.124 C 216.169 256.805, 217.083 253.364, 217.463 249.236 C 217.803 245.531, 218.299 241.088, 218.565 239.362 C 219.658 232.272, 226.848 225.969, 230.440 228.950 C 232.452 230.620, 232.421 234.113, 230.353 238.782 C 229.180 241.430, 228.622 246.097, 228.413 255.002 C 227.984 273.295, 225.596 281.951, 217.542 294.412 C 214.902 298.496, 212.659 303.405, 212.057 306.412 C 210.243 315.488, 208.002 342.240, 208.196 352.500 C 208.327 359.438, 208.475 360.509, 208.677 356 C 209.104 346.501, 211.876 317.570, 213.103 309.807 C 213.821 305.268, 215.292 301.245, 217.675 297.307 C 227.288 281.420, 230 272.232, 230 255.555 C 230 247.008, 230.462 243.117, 231.993 238.761 C 234.209 232.455, 233.630 228.943, 230.057 227.030 C 228.517 226.206, 227.342 226.289, 225.257 227.367 C 219.138 230.531, 217.360 234.366, 216.024 247.274 C 215.510 252.244, 214.681 256.719, 214.181 257.219 C 213.637 257.763, 211.258 255.596, 208.246 251.813 C 205.481 248.341, 202.219 244.600, 200.997 243.500 C 199.774 242.400, 196.810 237.383, 194.408 232.352 C 192.007 227.321, 188.980 221.921, 187.681 220.352 C 186.382 218.783, 183.608 214.417, 181.517 210.648 C 175.996 200.700, 168.209 196.690, 165.950 202.632 C 164.754 205.776, 165.338 207.894, 169.071 213.961 C 171.920 218.590, 181.446 241.887, 180.768 242.565 C 180.566 242.768, 177.723 238.210, 174.450 232.437 C 164.515 214.910, 156.995 206.915, 151.952 208.515 C 148.578 209.586, 148.499 213.407, 151.752 218.186 C 155.614 223.860, 168 245.545, 168 246.633 C 168 247.099, 165.274 243.358, 161.942 238.318 C 158.610 233.278, 154.759 228.417, 153.383 227.515 C 150.419 225.573, 147.112 225.849, 145.664 228.159 C 144.516 229.992, 147.797 236.924, 155.574 249.096 C 164.145 262.509, 164.107 262.974, 155.047 255.598 C 146.447 248.599, 142.046 247.177, 140.120 250.776 C 138.723 253.385, 140.021 255.147, 152.804 268 C 161.232 276.475, 164.890 280.947, 166.707 285 C 168.064 288.025, 170.213 291.872, 171.484 293.549 C 176.365 299.989, 176.509 308.649, 172.165 334.500 C 171.055 341.100, 169.850 348.840, 169.487 351.700 C 169.124 354.560, 168.191 357.427, 167.414 358.071 C 164.490 360.498, 156.370 354.788, 154.063 348.683 C 153.446 347.050, 153.252 343.056, 153.601 339.183 C 155.017 323.470, 150.602 303.849, 141.997 287.611 C 139.341 282.600, 134.821 271.750, 131.952 263.500 C 126.662 248.288, 123.323 240.708, 119.833 235.988 C 118.772 234.553, 115.524 228.231, 112.615 221.939 C 109.706 215.648, 102.885 202.850, 97.457 193.500 C 69.196 144.815, 64.748 133.212, 70.028 121.941 C 73.261 115.037, 77.782 112.215, 88.655 110.313 C 100.031 108.323, 124.454 108.990, 149.500 111.975 C 175.784 115.108, 173.708 114.582, 175.610 118.590 C 176.641 120.763, 178.747 122.850, 181.138 124.070 C 184.831 125.954, 185 126.256, 185 130.963 L 185 135.886 169.250 135.727 C 158.766 135.620, 149.989 136.119, 143 137.219 C 121.428 140.613, 123.610 140.779, 117.911 135.317 C 112.076 129.724, 108.386 127.281, 107.345 128.321 C 106.390 129.276, 118.171 141.245, 129 150.322 C 140.991 160.373, 150.805 170.701, 153.604 176.214 C 157.020 182.942, 158.532 183.500, 169.196 181.972 C 174.758 181.175, 181.914 180.936, 188.378 181.331 C 198.516 181.951, 198.727 181.919, 201.094 179.403 C 203.311 177.046, 203.526 175.904, 203.835 164.865 L 204.170 152.884 199.231 148.192 C 196.515 145.611, 192.876 142.314, 191.146 140.865 C 188.065 138.285, 188 138.051, 188 129.615 L 188 121 184.523 121 C 180.727 121, 178.988 119.176, 176.853 112.955 C 176.201 111.055, 174.617 108.107, 173.333 106.405 C 168.943 100.584, 166.677 92.359, 166.609 82 C 166.563 74.923, 166.975 71.709, 168.223 69.398 C 173.817 59.041, 187.257 55.767, 194.895 62.902 C 201.097 68.696, 203.925 90.139, 199.523 98 L 197.563 101.500 196.890 96.500 C 196.519 93.750, 196.660 89.907, 197.203 87.960 C 199.407 80.058, 193.684 70.484, 185.245 67.955 C 181.634 66.873, 180.747 66.936, 178.462 68.433 C 174.909 70.761, 172.926 75.935, 172.272 84.588 C 171.558 94.032, 174.106 99.824, 180.894 104.188 C 184.758 106.672, 186.265 107.080, 190.250 106.721 C 194.907 106.302, 195 106.350, 195 109.147 C 195 112.633, 195.436 112.667, 199.578 109.508 C 209.858 101.667, 211.748 81.110, 203.786 63.729 C 200.245 55.998, 200.467 54.910, 206.922 48.358 C 215.644 39.505, 227.468 37.345, 247.500 40.946 C 266.600 44.380, 278.629 51.551, 284.916 63.250 L 287.199 67.500 284.524 64.246 C 278.451 56.859, 269.728 52.912, 255.241 50.995 C 246.002 49.773, 238.842 50.649, 231.483 53.905 C 226.502 56.108, 217 64.516, 217 66.720 C 217 67.516, 217.338 68.014, 217.750 67.828 C 218.162 67.641, 220.918 66.218, 223.874 64.665 C 231.703 60.551, 241.900 58.630, 248.565 60.014 C 253.493 61.037, 262 65.984, 262 67.828 C 262 68.276, 259.657 68.749, 256.793 68.880 C 246.994 69.327, 234.541 72.020, 228.358 75.030 C 222.550 77.856, 215 84.690, 215 87.120 C 215 88.308, 215.491 88.197, 224 85.080 C 230.402 82.735, 236.838 82.430, 239.461 84.348 C 241.136 85.573, 240.906 85.759, 236.945 86.393 C 223.689 88.513, 213.685 97.597, 207.046 113.544 C 205.294 117.752, 204.102 121.435, 204.396 121.729 C 204.690 122.023, 207.422 119.987, 210.467 117.204 C 216.676 111.530, 230.447 105.393, 234.622 106.441 C 237.454 107.152, 239.333 110.376, 238.480 113.062 C 237.626 115.754, 228.773 122.269, 221.801 125.337 C 213.732 128.888, 207.518 135.411, 205.459 142.493 C 203.905 147.838, 204.090 153, 205.835 153 C 206.273 153, 207.652 150.539, 208.899 147.531 C 211.911 140.264, 216.085 136.824, 229.598 130.475 C 238.603 126.244, 241.327 124.464, 243.181 121.603 C 244.456 119.635, 245.758 118.019, 246.073 118.012 C 247.507 117.981, 260.875 127.232, 261.410 128.626 C 261.740 129.486, 261.108 132.229, 260.005 134.722 C 258.371 138.415, 258 141.418, 258 150.946 C 258 165.900, 259.604 171.656, 265.378 177.431 L 269.624 181.677 283.142 182.355 C 290.577 182.728, 300.303 183.674, 304.755 184.457 C 315.521 186.350, 318.932 185.412, 323.048 179.430 C 327.227 173.356, 332.736 168.040, 342.396 160.760 C 346.853 157.401, 354.390 150.936, 359.145 146.394 C 363.900 141.852, 370.312 136.712, 373.395 134.972 C 380.562 130.927, 381.524 129.491, 376.522 130.303 C 371.017 131.196, 362.820 136.547, 358.391 142.138 C 353.822 147.905, 351.825 148.214, 343.036 144.515 C 334.862 141.075, 324.279 138.341, 312.633 136.662 C 306.750 135.813, 302.408 134.686, 301.879 133.869 C 299.832 130.708, 298 122.177, 298 115.810 L 298 108.983 303.750 109.589 C 306.913 109.923, 315.125 111.032, 322 112.054 C 338.908 114.568, 360.671 117.626, 371 118.941 C 381.362 120.259, 399.160 124.264, 404.207 126.413 C 409.731 128.764, 412 131.684, 411.999 136.439 C 411.998 141.405, 407.759 150.645, 402.337 157.500 C 396.647 164.693, 371.193 200.245, 365.823 208.500 C 358.477 219.793, 352.338 231.807, 348.161 243.066 C 346.015 248.851, 342.849 256.293, 341.126 259.603 C 339.403 262.914, 337.091 269.758, 335.988 274.812 C 333.560 285.936, 330.465 294.369, 325.014 304.713 L 320.910 312.500 321.550 324 C 322.299 337.463, 321.025 346.881, 317.821 351.556 C 315.685 354.673, 310.425 358, 307.633 358 C 306.775 358, 305.202 352.979, 303.010 343.250 C 295.061 307.970, 295.063 307.200, 303.167 290.991 C 308.977 279.368, 310.019 277.962, 321.213 266.620 C 330.916 256.789, 333.038 254.118, 332.796 252.042 C 332.562 250.029, 331.876 249.441, 329.500 249.216 C 326.279 248.910, 323.751 250.428, 314.948 257.952 L 309.740 262.404 311.521 258.952 C 312.501 257.053, 315.664 251.675, 318.550 247 C 321.436 242.325, 324.851 236.323, 326.140 233.663 C 328.442 228.911, 328.449 228.802, 326.550 227.413 C 325.487 226.636, 323.752 226, 322.694 226 C 320.331 226, 315.271 231.409, 309.848 239.733 C 307.603 243.180, 305.581 246, 305.357 246 C 304.846 246, 307.604 240.626, 310.490 236 C 311.690 234.075, 315.272 228.111, 318.449 222.747 C 324.073 213.251, 324.183 212.928, 322.590 210.497 C 320.640 207.521, 319.475 207.413, 315.500 209.837 C 311.696 212.157, 305.653 220.037, 299.017 231.330 C 296.163 236.187, 293.616 239.949, 293.357 239.690 C 292.598 238.931, 299.800 221.058, 303.615 214.232 C 307.866 206.625, 308.099 200.727, 304.170 200.170 C 300.477 199.647, 294.777 204.148, 291.584 210.108 C 289.995 213.074, 287.184 217.592, 285.337 220.148 C 283.490 222.705, 280.468 228.111, 278.622 232.162 C 276.776 236.213, 272.775 242.446, 269.730 246.013 C 266.685 249.581, 263.064 253.850, 261.682 255.500 C 260.300 257.150, 258.906 258.236, 258.582 257.914 C 258.259 257.591, 257.327 252.272, 256.512 246.093 C 254.931 234.103, 254.825 233.758, 251.601 230.144 C 244.833 222.554, 236.447 228.375, 240.654 237.742 C 241.866 240.439, 242.528 245.736, 243 256.500 C 243.774 274.170, 246.308 283.270, 253.610 294.607 C 256.052 298.398, 258.470 303.075, 258.985 305 C 260.440 310.444, 264.110 347.769, 263.876 354.750 C 263.761 358.187, 263.967 361.300, 264.333 361.667 C 266.734 364.068, 262.732 311.320, 259.882 303 C 259.222 301.075, 257.376 297.578, 255.779 295.230 C 247.925 283.677, 243.349 267.681, 244.521 255.872 C 245.007 250.976, 244.721 247.580, 243.426 242.872 C 241.091 234.379, 241.040 230.037, 243.259 228.622 C 248.013 225.589, 254.938 235.161, 255.080 244.962 C 255.176 251.533, 257.033 259.199, 258.657 259.728 C 259.293 259.935, 261.543 257.972, 263.657 255.366 C 265.770 252.760, 269.376 248.566, 271.669 246.046 C 273.962 243.527, 277.441 237.949, 279.399 233.652 C 281.357 229.355, 284.260 224.187, 285.849 222.169 C 287.438 220.151, 289.906 216.250, 291.334 213.500 C 294.473 207.451, 296.618 204.808, 300.255 202.507 C 302.479 201.099, 303.298 201.002, 304.505 202.004 C 306.799 203.908, 306.314 206.715, 302.628 212.869 C 296.842 222.530, 289.284 243.439, 291.159 244.598 C 291.695 244.929, 292.217 245.043, 292.320 244.850 C 292.423 244.658, 293.436 243.150, 294.571 241.500 C 295.707 239.850, 299.250 234.040, 302.446 228.589 C 310.909 214.151, 319.692 206.427, 321.699 211.657 C 322.048 212.568, 321.697 214.333, 320.917 215.578 C 311.996 229.831, 302 248.340, 302 250.605 C 302 253.625, 303.960 251.603, 310.095 242.250 C 317.445 231.044, 320.340 228, 323.646 228 C 328.024 228, 326.956 230.657, 314.165 251.589 C 308.665 260.588, 306.831 265, 308.587 265 C 308.910 265, 312.483 262.166, 316.527 258.701 C 326.412 250.233, 328.549 249.121, 330.736 251.307 C 332.305 252.877, 331.631 253.775, 320.237 265.301 C 309.778 275.880, 307.571 278.691, 304.589 285.236 C 302.679 289.427, 299.918 294.754, 298.453 297.075 C 295.905 301.110, 295.808 301.758, 296.236 311.897 C 296.561 319.620, 297.864 327.616, 301.035 341.336 L 305.387 360.173 308.419 359.566 C 313.322 358.586, 318.684 354.228, 320.600 349.666 C 321.939 346.476, 322.486 341.401, 322.933 328 L 323.516 310.500 327.397 303 C 332.741 292.672, 335.590 284.754, 337.404 275.192 C 338.341 270.255, 340.472 264.007, 342.833 259.281 C 344.970 255.002, 347.529 249.025, 348.518 246 C 354.687 227.146, 362.041 215.349, 401.915 160.351 C 408.826 150.818, 411.097 146.822, 412.457 141.797 C 415.974 128.803, 411.442 125.222, 385 120.104 C 376.475 118.453, 362.075 116.137, 353 114.956 C 343.925 113.775, 332.856 112.186, 328.401 111.426 C 318.705 109.770, 301.392 107.647, 298.250 107.730 C 295.701 107.796, 295.218 105.225, 297.188 102.070 C 298.736 99.592, 297.185 90.911, 292.884 77.970 C 289.308 67.214, 287.671 63.872, 282.984 57.767 C 275.686 48.261, 266.622 43.317, 250.351 39.969 C 239.271 37.690, 223.382 37.448, 217.871 39.476 M 235.228 53.969 C 230.327 55.733, 223.896 60.011, 221.123 63.352 C 220.288 64.358, 221.055 64.232, 223.719 62.927 C 232.514 58.617, 243.880 57.006, 251.182 59.034 C 255.841 60.328, 264.397 66.169, 264.823 68.347 C 265.088 69.700, 264.271 70.001, 260.323 70.004 C 255.066 70.008, 240.906 72.127, 234.438 73.877 C 229.952 75.091, 219.915 81.694, 219.189 83.909 C 218.847 84.952, 219.218 85.112, 220.614 84.526 C 221.651 84.090, 225.244 83.049, 228.598 82.212 C 234.325 80.782, 234.929 80.805, 238.543 82.595 C 244.131 85.361, 243.858 86.552, 237.338 87.861 C 234.186 88.494, 229.685 89.942, 227.337 91.079 C 221.559 93.876, 214.225 102.163, 210.089 110.568 C 208.212 114.381, 206.433 117.950, 206.135 118.500 C 205.837 119.050, 207.739 117.617, 210.362 115.316 C 215.805 110.542, 228.166 105, 233.374 105 C 237.329 105, 240 107.773, 240 111.877 C 240 115.356, 233.603 121.038, 224.620 125.538 C 220.464 127.619, 215.515 130.599, 213.622 132.160 C 209.465 135.586, 205.996 142.379, 206.010 147.066 L 206.020 150.500 208.383 145.500 C 211.680 138.527, 214.818 135.989, 228 129.635 C 237.236 125.183, 240.079 123.295, 242.442 120.046 C 244.060 117.821, 245.660 116, 245.998 116 C 246.336 116, 250.187 118.362, 254.556 121.250 C 263.684 127.283, 264.263 128.636, 260.982 136.264 C 259.066 140.717, 258.842 142.753, 259.150 152.919 C 259.467 163.409, 259.783 165.065, 262.500 170.500 C 266.006 177.512, 270.531 181.035, 275.898 180.930 L 279.500 180.859 275.591 179.427 C 269.423 177.167, 265.182 173.401, 264.102 169.224 C 262.733 163.930, 260.613 146.154, 260.856 142 C 260.968 140.075, 262.216 136.195, 263.629 133.378 C 266.024 128.603, 266.096 128.061, 264.697 125.391 C 263.871 123.815, 260.573 120.939, 257.367 119 C 252.736 116.198, 250.661 114.046, 247.269 108.524 C 241.912 99.803, 241.566 95.280, 245.923 90.923 C 249.201 87.645, 250.867 87.363, 254.835 89.415 C 257.613 90.851, 260.817 95.517, 259.755 96.578 C 259.435 96.898, 258.007 96.396, 256.582 95.462 C 254.491 94.091, 253.701 94.003, 252.495 95.004 C 248.877 98.007, 252.667 107.299, 259.398 111.930 C 264.614 115.518, 265.566 114.266, 260.922 109.927 C 257.594 106.819, 257.355 103.748, 260.395 103.162 C 261.537 102.943, 263.128 103.882, 264.474 105.569 C 267.041 108.789, 270.586 108.420, 269.514 105.046 C 269.085 103.691, 269.647 102.424, 271.324 100.966 C 273.536 99.043, 273.713 98.287, 273.266 92.675 C 272.841 87.347, 273.055 86.246, 274.826 84.650 C 276.012 83.581, 278.381 82.800, 280.439 82.800 C 283.483 82.800, 284 82.468, 284 80.511 C 284 79.252, 284.851 77.171, 285.890 75.887 C 287.361 74.071, 287.570 72.999, 286.832 71.059 C 285.145 66.621, 279.355 60.511, 274.155 57.681 C 264.166 52.244, 245.079 50.424, 235.228 53.969 M 177.781 70.750 C 176.027 72.759, 174.437 77.582, 173.466 83.844 C 172.119 92.528, 176.836 101.237, 184.718 104.619 C 189.020 106.465, 191.335 106.359, 194.010 104.193 C 195.921 102.646, 196.141 101.797, 195.548 98.282 L 194.854 94.177 192.032 95.797 C 188.068 98.071, 184.479 96.270, 181.973 90.749 C 178.665 83.463, 179.755 80, 185.355 80 C 187.506 80, 189.355 81.099, 192.155 84.042 L 196 88.084 196 84.443 C 196 82.441, 195.261 79.244, 194.357 77.340 C 191.126 70.530, 181.363 66.649, 177.781 70.750 M 287.176 77.137 C 285.979 79.609, 285 82.164, 285 82.816 C 285 83.489, 283.574 84, 281.691 84 C 275.928 84, 274.475 85.911, 274.828 93.026 C 275.079 98.095, 274.774 99.617, 273.155 101.364 C 272.066 102.539, 271.023 104.625, 270.838 106 C 270.572 107.967, 269.846 108.564, 267.433 108.800 C 264.966 109.041, 264.139 108.601, 263.205 106.550 C 262.566 105.147, 261.583 104, 261.021 104 C 259.052 104, 260.028 106.960, 263 110 C 265.972 113.040, 266.773 115.404, 265.169 116.395 C 264.712 116.678, 261.969 115.313, 259.072 113.363 C 252.992 109.268, 249.690 103.267, 250.191 97.223 C 250.461 93.974, 250.858 93.459, 253.312 93.178 C 255.622 92.913, 255.913 92.600, 254.940 91.428 C 253.302 89.455, 248.636 89.638, 246.733 91.750 C 243.716 95.098, 243.647 98.506, 246.482 104.176 C 249.771 110.755, 252.964 114.217, 259.813 118.631 C 263.259 120.853, 265.624 123.250, 266.546 125.457 C 267.888 128.668, 267.800 129.176, 264.984 134.531 C 263.343 137.651, 262.020 141.620, 262.044 143.352 C 262.138 150.099, 265.730 170.970, 267.078 172.599 C 269.542 175.578, 278.172 178.980, 283.290 178.990 C 288.168 179, 294.522 176.486, 296.919 173.597 C 297.958 172.346, 297.975 169.369, 297.007 158.082 C 296.126 147.801, 296.098 142.768, 296.904 139.011 C 297.863 134.539, 297.674 132.641, 295.380 123.703 C 291.603 108.987, 291.478 108, 293.387 108 C 294.452 108, 295 107.128, 295 105.434 C 295 104.023, 295.424 102.076, 295.943 101.107 C 297.095 98.955, 294.848 87.339, 291.600 78.654 L 289.351 72.643 287.176 77.137 M 182.720 81.613 C 180.584 83.750, 183.464 93.108, 186.808 94.897 C 188.367 95.731, 189.339 95.521, 191.393 93.905 C 192.827 92.778, 194 90.995, 194 89.943 C 194 85.876, 185.060 79.274, 182.720 81.613 M 295.123 111.351 C 294.287 112.359, 294.365 113.695, 295.430 116.601 L 296.859 120.500 296.930 115.250 C 297.005 109.612, 296.848 109.273, 295.123 111.351 M 182.585 123.138 C 182.878 123.612, 183.733 124, 184.486 124 C 185.238 124, 186.082 124.787, 186.361 125.750 C 186.655 126.761, 186.791 126.444, 186.685 125 C 186.550 123.177, 185.897 122.470, 184.276 122.388 C 183.053 122.326, 182.292 122.664, 182.585 123.138 M 117 137.371 C 119.475 140.031, 125.821 145.729, 131.102 150.033 C 142.211 159.087, 151.068 168.520, 154.667 175.132 C 158.011 181.273, 160.397 182.509, 165.997 181.001 C 168.599 180.300, 175.892 179.950, 184.337 180.120 L 198.358 180.402 200.429 177.630 C 202.119 175.369, 202.561 173.078, 202.829 165.180 C 203.128 156.382, 202.945 155.185, 200.818 152.042 C 199.530 150.140, 196.457 147.097, 193.989 145.280 C 187.657 140.618, 187.253 140.259, 186.794 138.881 C 186.083 136.750, 159.881 136.460, 144.617 138.414 C 137.403 139.338, 129.476 140.550, 127.002 141.109 C 122.891 142.038, 122.326 141.926, 120.433 139.812 C 119.294 138.541, 117.043 136.383, 115.431 135.017 C 113.819 133.651, 114.525 134.710, 117 137.371 M 298.499 138.250 C 297.278 144.949, 297.518 151.547, 299.528 166.551 C 300.134 171.071, 299.928 171.932, 297.576 174.727 C 296.131 176.445, 293.100 178.467, 290.841 179.220 L 286.734 180.589 300.691 182.424 C 311.225 183.809, 315.156 183.987, 316.722 183.149 C 317.864 182.538, 321.053 179.204, 323.809 175.740 C 326.565 172.276, 331.223 167.560, 334.160 165.260 C 337.097 162.959, 342.826 158.509, 346.891 155.371 L 354.281 149.666 349.891 148.482 C 347.476 147.830, 343.436 146.378, 340.914 145.254 C 335.118 142.673, 322.005 139.444, 311 137.888 C 306.325 137.227, 302.072 136.307, 301.550 135.843 C 299.858 134.341, 299.102 134.937, 298.499 138.250 M 365.664 136.883 C 364.104 137.911, 361.425 140.496, 359.710 142.626 C 357.053 145.926, 357.473 145.694, 362.545 141.059 C 365.820 138.066, 368.688 135.479, 368.917 135.309 C 369.146 135.139, 369.146 135.003, 368.917 135.007 C 368.688 135.010, 367.224 135.855, 365.664 136.883" stroke="none" fill="#6f6f6f" fill-rule="evenodd"/></svg>